<?xml version="1.0" encoding="UTF-8" standalone="no"?>
<!DOCTYPE svg PUBLIC "-//W3C//DTD SVG 1.1//EN" "http://www.w3.org/Graphics/SVG/1.1/DTD/svg11.dtd">
<svg width="100%" height="100%" viewBox="0 0 241 272" version="1.1" xmlns="http://www.w3.org/2000/svg" xmlns:xlink="http://www.w3.org/1999/xlink" xml:space="preserve" xmlns:serif="http://www.serif.com/" style="fill-rule:evenodd;clip-rule:evenodd;stroke-linejoin:round;stroke-miterlimit:2;"> <g transform="matrix(2.94893,0,0,2.94893,-234.457,-264.47)"> <path d="M154.4,97.7C150.3,92.9 144.9,90.2 139.1,90.2C133.7,90.2 128.5,92.6 124.5,96.9L123.3,98.1C122.6,98.9 121.5,99.3 120.4,99.3C119.3,99.3 118.3,98.8 117.5,98.1L116.3,96.9C112.3,92.6 107.1,90.2 101.7,90.2C95.9,90.2 90.5,92.9 86.4,97.7C82.4,102.4 80.2,108.6 80,115.2L80,144.7C80,145.5 80.7,146.1 81.5,146.1L87.2,146.1C88,146.1 88.6,145.4 88.6,144.7L88.6,114.8C88.6,111.1 90.2,107.8 92.4,105.2C94.9,102.3 98.2,100.6 101.8,100.6C105.4,100.6 108.7,102.2 111.2,105.2L116.8,111.8C117.8,112.9 119,113.5 120.4,113.5C121.8,113.5 123,112.9 124,111.8L129.6,105.2C132.1,102.3 135.4,100.6 139,100.6C142.6,100.6 145.9,102.2 148.4,105.2C150.6,107.8 152.2,111.2 152.2,114.8L152.2,144.7C152.2,145.5 152.9,146.1 153.6,146.1L159.3,146.1C160.1,146.1 160.7,145.4 160.7,144.7L160.7,115.2C160.6,108.6 158.3,102.4 154.4,97.7Z" style="fill:rgb(0,165,195);fill-rule:nonzero;"/> </g> <g> <g transform="matrix(2.94893,0,0,2.94893,-234.457,-264.47)"> <path d="M99.2,159.5L96.2,159.5C94.9,159.5 93.9,160.5 93.9,161.8C93.9,163.1 95,164.2 96.2,164.2L101,164.2C101.1,164.2 101.3,164.1 101.3,163.9L101.3,158.8C101.3,157.5 100.1,156.6 98.9,156.6L95.4,156.6C95.3,156.6 95.1,156.7 95.1,156.9L95.1,158C95.1,158.1 95.2,158.2 95.4,158.2L98.9,158.2C99.2,158.2 99.5,158.5 99.5,158.8L99.5,159.2C99.5,159.3 99.3,159.5 99.2,159.5ZM99.2,162.6L96.2,162.6C95.9,162.6 95.6,162.2 95.6,161.8C95.6,161.4 95.9,161 96.3,161L99.2,161C99.3,161 99.5,161.1 99.5,161.3L99.5,162.4C99.5,162.4 99.3,162.6 99.2,162.6Z" style="fill:rgb(0,165,195);fill-rule:nonzero;"/> </g> <g transform="matrix(2.94893,0,0,2.94893,-234.457,-264.47)"> <path d="M154.2,159.5L151.2,159.5C149.9,159.5 148.9,160.5 148.9,161.8C148.9,163.1 150,164.2 151.2,164.2L156,164.2C156.1,164.2 156.3,164.1 156.3,163.9L156.3,158.8C156.3,157.5 155.1,156.6 153.9,156.6L150.4,156.6C150.3,156.6 150.1,156.7 150.1,156.9L150.1,158C150.1,158.1 150.2,158.2 150.4,158.2L153.9,158.2C154.2,158.2 154.5,158.5 154.5,158.8L154.5,159.2C154.5,159.3 154.4,159.5 154.2,159.5ZM154.2,162.6L151.2,162.6C150.9,162.6 150.6,162.2 150.6,161.8C150.6,161.4 150.9,161 151.3,161L154.2,161C154.3,161 154.5,161.1 154.5,161.3L154.5,162.4C154.5,162.4 154.4,162.6 154.2,162.6Z" style="fill:rgb(0,165,195);fill-rule:nonzero;"/> </g> <g transform="matrix(2.94893,0,0,2.94893,-234.457,-264.47)"> <path d="M109.2,159.5L106.2,159.5C104.9,159.5 103.9,160.5 103.9,161.8C103.9,163.1 105,164.2 106.2,164.2L111,164.2C111.1,164.2 111.3,164.1 111.3,163.9L111.3,158.8C111.3,157.5 110.1,156.6 108.9,156.6L105.4,156.6C105.3,156.6 105.1,156.7 105.1,156.9L105.1,158C105.1,158.1 105.2,158.2 105.4,158.2L108.9,158.2C109.2,158.2 109.5,158.5 109.5,158.8L109.5,159.2C109.5,159.3 109.3,159.5 109.2,159.5ZM109.2,162.6L106.2,162.6C105.9,162.6 105.6,162.2 105.6,161.8C105.6,161.4 105.9,161 106.3,161L109.2,161C109.3,161 109.5,161.1 109.5,161.3L109.5,162.4C109.4,162.4 109.3,162.6 109.2,162.6Z" style="fill:rgb(0,165,195);fill-rule:nonzero;"/> </g> <g transform="matrix(2.94893,0,0,2.94893,-234.457,-264.47)"> <path d="M160.8,153.7C160.8,153.5 160.7,153.4 160.5,153.4L159.3,153.4C159.2,153.4 159,153.5 159,153.7L159,164C159,164.1 159.1,164.3 159.3,164.3L160.5,164.3C160.6,164.3 160.8,164.2 160.8,164L160.8,153.7Z" style="fill:rgb(0,165,195);fill-rule:nonzero;"/> </g> <g transform="matrix(2.94893,0,0,2.94893,-234.457,-264.47)"> <path d="M146.6,153.6C146.6,153.5 146.5,153.3 146.3,153.3L145,153.3C144.9,153.3 144.7,153.4 144.7,153.6L144.7,157.3C144.1,156.9 143.3,156.7 142.6,156.7C140.6,156.7 138.7,158.3 138.7,160.5C138.7,162.7 140.5,164.3 142.6,164.3L146.3,164.3C146.4,164.3 146.6,164.2 146.6,164L146.6,153.6ZM144.6,162.5L142.7,162.5C141.6,162.5 140.6,161.6 140.6,160.5C140.6,159.3 141.7,158.4 142.7,158.4C143.8,158.4 144.8,159.3 144.8,160.5L144.8,162.3C144.9,162.4 144.7,162.5 144.6,162.5Z" style="fill:rgb(0,165,195);fill-rule:nonzero;"/> </g> <g transform="matrix(2.94893,0,0,2.94893,-234.457,-264.47)"> <path d="M89.8,158.6L89.8,164C89.8,164.1 89.9,164.2 90,164.2L91.2,164.2C91.3,164.2 91.4,164.1 91.4,164L91.4,156.9C91.4,156.8 91.3,156.6 91.1,156.6L88.1,156.6C87.1,156.6 86.3,157 85.7,157.7C85.1,157 84.2,156.6 83.3,156.6C81.5,156.6 80,158.1 80,159.9L80,164C80,164.1 80.1,164.2 80.2,164.2L81.4,164.2C81.5,164.2 81.6,164.1 81.6,164L81.6,159.9C81.6,159 82.3,158.3 83.2,158.3C84.1,158.3 84.8,159 84.8,159.9L84.8,164C84.8,164.1 84.9,164.2 85,164.2L86.2,164.2C86.3,164.2 86.4,164.1 86.4,164L86.4,159.9C86.4,159 87.1,158.3 88,158.3L89.3,158.3C89.6,158.3 89.8,158.4 89.8,158.6Z" style="fill:rgb(0,165,195);fill-rule:nonzero;"/> </g> <g transform="matrix(2.94893,0,0,2.94893,-234.457,-264.47)"> <path d="M136.8,160.6C136.7,158.5 135.3,156.6 132.9,156.6C130.9,156.6 129,158.1 129,160.2C129,162.3 130.7,164.2 132.9,164.2L136.2,164.2C136.3,164.2 136.5,164.1 136.5,163.9L136.5,162.8C136.5,162.7 136.4,162.5 136.2,162.5L132.8,162.5C131.8,162.5 131.1,161.8 130.9,161.1L130.9,161C130.9,160.9 131,160.8 131,160.8L136.5,160.8C136.6,160.8 136.8,160.7 136.8,160.5L136.8,160.6ZM134.7,159.4L131.2,159.4C131.1,159.4 131.1,159.3 131.1,159.2L131.1,159.1C131.5,158.5 132.2,158.1 132.9,158.1C133.6,158.1 134.4,158.5 134.8,159.1L134.8,159.2C134.8,159.4 134.7,159.4 134.7,159.4Z" style="fill:rgb(0,165,195);fill-rule:nonzero;"/> </g> <g transform="matrix(2.94893,0,0,2.94893,-234.457,-264.47)"> <path d="M124.3,159.6C124.2,159.6 124.2,159.5 124.2,159.5C124.2,159.5 124.2,159.4 124.3,159.4L126.1,158.1C126.2,158 126.2,157.8 126.2,157.7L125.5,156.8C125.4,156.7 125.3,156.7 125.1,156.7L124,157.5L122.3,158.8L122.2,158.8C122.1,158.8 122.1,158.7 122.1,158.7L122.1,153.8C122.1,153.7 122,153.5 121.8,153.5L120.6,153.5C120.5,153.5 120.3,153.6 120.3,153.8L120.3,164.1C120.3,164.2 120.4,164.4 120.6,164.4L121.8,164.4C121.9,164.4 122.1,164.3 122.1,164.1L122.1,161.6C122.1,161.5 122.2,161.3 122.4,161.3L123.5,161.3C124.8,161.3 125.5,162.6 125.5,164C125.5,164.1 125.6,164.3 125.8,164.3L127,164.3C127.1,164.3 127.3,164.2 127.3,164C127.1,161.4 126,160 124.3,159.6Z" style="fill:rgb(0,165,195);fill-rule:nonzero;"/> </g> <g transform="matrix(2.94893,0,0,2.94893,-234.457,-264.47)"> <path d="M117.8,156.9C117.8,156.8 117.7,156.7 117.5,156.7L116.3,156.7C115.1,156.7 114,157.7 114,158.9L114,164C114,164.1 114.1,164.3 114.3,164.3L115.5,164.3C115.6,164.3 115.8,164.2 115.8,164L115.8,159C115.8,158.8 115.8,158.2 116.5,158.2L117.6,158.2C117.7,158.2 117.9,158.1 117.9,157.9L117.8,156.9Z" style="fill:rgb(0,165,195);fill-rule:nonzero;"/> </g> </g> <g> <g transform="matrix(2.94893,0,0,2.94893,-234.457,-264.47)"> <path d="M80.1,175.5L80.1,174.2L80.9,174.2L80.9,175C81.2,174.5 81.6,174.1 82.4,174.1C83.1,174.1 83.6,174.5 83.8,175.1C84,174.8 84.1,174.6 84.3,174.5C84.6,174.3 84.9,174.2 85.4,174.2C86,174.2 87,174.6 87,176.3L87,179.2L86.1,179.2L86.1,176.4C86.1,175.5 85.8,174.9 85,174.9C84.5,174.9 84.1,175.3 83.9,175.7C83.9,175.8 83.8,176 83.8,176.1L83.8,179.1L82.9,179.1L82.9,176.2C82.9,175.4 82.6,174.9 81.9,174.9C81.3,174.9 80.9,175.3 80.8,175.8C80.7,175.9 80.7,176.1 80.7,176.2L80.7,179.2L79.8,179.2L79.8,175.5L80.1,175.5Z" style="fill:rgb(0,165,195);fill-rule:nonzero;"/> </g> <g transform="matrix(2.94893,0,0,2.94893,-234.457,-264.47)"> <path d="M93.9,176.6C93.9,178.4 92.6,179.2 91.5,179.2C90.2,179.2 89.2,178.2 89.2,176.7C89.2,175.1 90.3,174.1 91.6,174.1C92.9,174.1 93.9,175.1 93.9,176.6ZM90.1,176.6C90.1,177.7 90.7,178.5 91.6,178.5C92.5,178.5 93.1,177.7 93.1,176.6C93.1,175.8 92.7,174.7 91.6,174.7C90.5,174.7 90.1,175.7 90.1,176.6Z" style="fill:rgb(0,165,195);fill-rule:nonzero;"/> </g> <g transform="matrix(2.94893,0,0,2.94893,-234.457,-264.47)"> <path d="M96.6,176.8C96.6,178 97.4,178.5 98.3,178.5C98.9,178.5 99.3,178.4 99.7,178.2L99.9,178.8C99.6,178.9 99.1,179.1 98.3,179.1C96.8,179.1 95.9,178.1 95.9,176.6C95.9,175.1 96.8,174 98.2,174C99.8,174 100.2,175.4 100.2,176.3L100.2,176.7L96.6,176.8ZM99.2,176.1C99.2,175.5 99,174.7 98,174.7C97.1,174.7 96.7,175.5 96.6,176.1L99.2,176.1Z" style="fill:rgb(0,165,195);fill-rule:nonzero;"/> </g> <g transform="matrix(2.94893,0,0,2.94893,-234.457,-264.47)"> <path d="M103.2,172.7L103.2,174.1L104.5,174.1L104.5,174.8L103.2,174.8L103.2,177.4C103.2,178 103.4,178.4 103.9,178.4C104.1,178.4 104.3,178.4 104.4,178.3L104.4,179C104.2,179.1 104,179.1 103.6,179.1C103.2,179.1 102.9,179 102.6,178.7C102.3,178.4 102.3,178 102.3,177.4L102.3,174.7L101.5,174.7L101.5,174L102.3,174L102.3,173L103.2,172.7Z" style="fill:rgb(0,165,195);fill-rule:nonzero;"/> </g> <g transform="matrix(2.94893,0,0,2.94893,-234.457,-264.47)"> <path d="M108.5,180.5C108.9,180.5 109.3,180.4 109.5,180.1C109.7,179.8 109.8,179.4 109.8,178.3L109.8,174.2L110.7,174.2L110.7,178.6C110.7,179.6 110.5,180.2 110.1,180.6C109.7,181 109.1,181.2 108.6,181.2L108.5,180.5ZM110.8,172.8C110.8,173.1 110.6,173.3 110.2,173.3C109.9,173.3 109.7,173 109.7,172.8C109.7,172.5 109.9,172.2 110.3,172.2C110.6,172.2 110.8,172.4 110.8,172.8Z" style="fill:rgb(0,165,195);fill-rule:nonzero;"/> </g> <g transform="matrix(2.94893,0,0,2.94893,-234.457,-264.47)"> <path d="M113.6,176.8C113.6,178 114.4,178.5 115.3,178.5C115.9,178.5 116.3,178.4 116.7,178.2L116.9,178.8C116.6,178.9 116.1,179.1 115.3,179.1C113.8,179.1 112.9,178.1 112.9,176.6C112.9,175.1 113.8,174 115.2,174C116.8,174 117.2,175.4 117.2,176.3L117.2,176.7L113.6,176.8ZM116.3,176.1C116.3,175.5 116.1,174.7 115.1,174.7C114.2,174.7 113.8,175.5 113.7,176.1L116.3,176.1Z" style="fill:rgb(0,165,195);fill-rule:nonzero;"/> </g> <g transform="matrix(2.94893,0,0,2.94893,-234.457,-264.47)"> <path d="M122.4,179L122.4,171.8L123.3,171.8L123.3,174.9C123.6,174.4 124.2,174 125,174C126.2,174 127.1,175 127.1,176.5C127.1,178.3 126,179.1 124.9,179.1C124.2,179.1 123.6,178.8 123.3,178.2L123.3,179L122.4,179ZM123.3,177.1L123.3,177.4C123.5,178 124,178.4 124.6,178.4C125.5,178.4 126.1,177.6 126.1,176.5C126.1,175.5 125.6,174.7 124.6,174.7C124,174.7 123.4,175.1 123.2,175.8C123.2,175.9 123.1,176 123.1,176.2L123.1,177.1L123.3,177.1Z" style="fill:rgb(0,165,195);fill-rule:nonzero;"/> </g> <g transform="matrix(2.94893,0,0,2.94893,-234.457,-264.47)"> <path d="M129.7,176.8C129.7,178 130.5,178.5 131.4,178.5C132,178.5 132.4,178.4 132.8,178.2L133,178.8C132.7,178.9 132.2,179.1 131.4,179.1C129.9,179.1 129,178.1 129,176.6C129,175.1 129.9,174 131.3,174C132.9,174 133.3,175.4 133.3,176.3L133.3,176.7L129.7,176.8ZM132.3,176.1C132.3,175.5 132.1,174.7 131.1,174.7C130.2,174.7 129.8,175.5 129.7,176.1L132.3,176.1Z" style="fill:rgb(0,165,195);fill-rule:nonzero;"/> </g> <g transform="matrix(2.94893,0,0,2.94893,-234.457,-264.47)"> <rect x="135.3" y="171.9" width="0.9" height="7.2" style="fill:rgb(0,165,195);fill-rule:nonzero;"/> </g> <g transform="matrix(2.94893,0,0,2.94893,-234.457,-264.47)"> <path d="M139.1,176.8C139.1,178 139.9,178.5 140.8,178.5C141.4,178.5 141.8,178.4 142.2,178.2L142.4,178.8C142.1,178.9 141.6,179.1 140.8,179.1C139.3,179.1 138.4,178.1 138.4,176.6C138.4,175.1 139.3,174 140.7,174C142.3,174 142.7,175.4 142.7,176.3L142.7,176.7L139.1,176.8ZM141.8,176.1C141.8,175.5 141.6,174.7 140.6,174.7C139.7,174.7 139.3,175.5 139.2,176.1L141.8,176.1Z" style="fill:rgb(0,165,195);fill-rule:nonzero;"/> </g> <g transform="matrix(2.94893,0,0,2.94893,-234.457,-264.47)"> <path d="M145.1,174.1L146.1,176.9C146.3,177.3 146.4,177.7 146.5,178.2C146.6,177.8 146.8,177.4 146.9,176.9L147.9,174.1L148.8,174.1L146.9,179L146,179L144.1,174.1L145.1,174.1Z" style="fill:rgb(0,165,195);fill-rule:nonzero;"/> </g> <g transform="matrix(2.94893,0,0,2.94893,-234.457,-264.47)"> <path d="M151,176.8C151,178 151.8,178.5 152.7,178.5C153.3,178.5 153.7,178.4 154.1,178.2L154.3,178.8C154,178.9 153.5,179.1 152.7,179.1C151.2,179.1 150.3,178.1 150.3,176.6C150.3,175.1 151.2,174 152.6,174C154.2,174 154.6,175.4 154.6,176.3L154.6,176.7L151,176.8ZM153.6,176.1C153.6,175.5 153.4,174.7 152.4,174.7C151.5,174.7 151.1,175.5 151,176.1L153.6,176.1Z" style="fill:rgb(0,165,195);fill-rule:nonzero;"/> </g> <g transform="matrix(2.94893,0,0,2.94893,-234.457,-264.47)"> <path d="M156.6,179.1L156.6,174.2L157.4,174.2L157.5,175C157.7,174.5 158.3,174.1 159.1,174.1C159.8,174.1 160.8,174.5 160.8,176.2L160.8,179.1L159.9,179.1L159.9,176.3C159.9,175.5 159.6,174.9 158.8,174.9C158.2,174.9 157.8,175.3 157.6,175.8C157.6,175.9 157.5,176.1 157.5,176.2L157.5,179.1L156.6,179.1Z" style="fill:rgb(0,165,195);fill-rule:nonzero;"/> </g> </g></svg>