<svg version="1.1" id="Laag_1" xmlns="http://www.w3.org/2000/svg" xmlns:xlink="http://www.w3.org/1999/xlink" x="0px" y="0px"viewBox="0 0 240.8 271.3" style="enable-background:new 0 0 240.8 271.3;" xml:space="preserve"><style type="text/css">.st0{fill:#00A5C3;}
</style><path class="st0" d="M154.4,97.7c-4.1-4.8-9.5-7.5-15.3-7.5c-5.4,0-10.6,2.4-14.6,6.7l-1.2,1.2c-0.7,0.8-1.8,1.2-2.9,1.2c-1.1,0-2.1-0.5-2.9-1.2l-1.2-1.2c-4-4.3-9.2-6.7-14.6-6.7c-5.8,0-11.2,2.7-15.3,7.5c-4,4.7-6.2,10.9-6.4,17.5v29.5c0,0.8,0.7,1.4,1.5,1.4h5.7c0.8,0,1.4-0.7,1.4-1.4l0-29.9c0-3.7,1.6-7,3.8-9.6c2.5-2.9,5.8-4.6,9.4-4.6s6.9,1.6,9.4,4.6l5.6,6.6c1,1.1,2.2,1.7,3.6,1.7h0h0c1.4,0,2.6-0.6,3.6-1.7l5.6-6.6c2.5-2.9,5.8-4.6,9.4-4.6c3.6,0,6.9,1.6,9.4,4.6c2.2,2.6,3.8,6,3.8,9.6l0,29.9c0,0.8,0.7,1.4,1.4,1.4h5.7c0.8,0,1.4-0.7,1.4-1.4v-29.5C160.6,108.6,158.3,102.4,154.4,97.7L154.4,97.7z" /><g><path class="st0" d="M99.2,159.5h-3c-1.3,0-2.3,1-2.3,2.3s1.1,2.4,2.3,2.4h4.8c0.1,0,0.3-0.1,0.3-0.3l0,0v-5.1c0-1.3-1.2-2.2-2.4-2.2h-3.5c-0.1,0-0.3,0.1-0.3,0.3l0,0v1.1l0,0c0,0.1,0.1,0.2,0.3,0.2c0,0,0,0,0,0h3.5c0.3,0,0.6,0.3,0.6,0.6v0.4C99.5,159.3,99.3,159.5,99.2,159.5L99.2,159.5z M99.2,162.6h-3c-0.3,0-0.6-0.4-0.6-0.8c0-0.4,0.3-0.8,0.7-0.8h2.9l0,0c0.1,0,0.3,0.1,0.3,0.3v1.1C99.5,162.4,99.3,162.6,99.2,162.6L99.2,162.6L99.2,162.6z" /><path class="st0" d="M154.2,159.5h-3c-1.3,0-2.3,1-2.3,2.3s1.1,2.4,2.3,2.4h4.8c0.1,0,0.3-0.1,0.3-0.3l0,0v-5.1c0-1.3-1.2-2.2-2.4-2.2h-3.5c-0.1,0-0.3,0.1-0.3,0.3l0,0v1.1l0,0c0,0.1,0.1,0.2,0.3,0.2c0,0,0,0,0,0h3.5c0.3,0,0.6,0.3,0.6,0.6v0.4C154.5,159.3,154.4,159.5,154.2,159.5L154.2,159.5z M154.2,162.6h-3c-0.3,0-0.6-0.4-0.6-0.8c0-0.4,0.3-0.8,0.7-0.8h2.9l0,0c0.1,0,0.3,0.1,0.3,0.3v1.1C154.5,162.4,154.4,162.6,154.2,162.6L154.2,162.6L154.2,162.6z" /><path class="st0" d="M109.2,159.5h-3c-1.3,0-2.3,1-2.3,2.3s1.1,2.4,2.3,2.4h4.8c0.1,0,0.3-0.1,0.3-0.3l0,0v-5.1c0-1.3-1.2-2.2-2.4-2.2h-3.5c-0.1,0-0.3,0.1-0.3,0.3l0,0v1.1l0,0c0,0.1,0.1,0.2,0.3,0.2c0,0,0,0,0,0h3.5c0.3,0,0.6,0.3,0.6,0.6v0.4C109.5,159.3,109.3,159.5,109.2,159.5L109.2,159.5z M109.2,162.6h-3c-0.3,0-0.6-0.4-0.6-0.8c0-0.4,0.3-0.8,0.7-0.8h2.9l0,0c0.1,0,0.3,0.1,0.3,0.3v1.1C109.4,162.4,109.3,162.6,109.2,162.6L109.2,162.6L109.2,162.6z" /><path class="st0" d="M160.8,153.7C160.8,153.7,160.8,153.7,160.8,153.7c0-0.2-0.1-0.3-0.3-0.3h-1.2c-0.1,0-0.3,0.1-0.3,0.3c0,0,0,0,0,0v10.3l0,0c0,0.1,0.1,0.3,0.3,0.3l0,0h1.2c0.1,0,0.3-0.1,0.3-0.3c0,0,0,0,0,0V153.7L160.8,153.7z" /><path class="st0" d="M146.6,153.6L146.6,153.6c0-0.1-0.1-0.3-0.3-0.3h-1.3c-0.1,0-0.3,0.1-0.3,0.3l0,0v3.7c-0.6-0.4-1.4-0.6-2.1-0.6c-2,0-3.9,1.6-3.9,3.8s1.8,3.8,3.9,3.8h3.7c0,0,0,0,0,0c0.1,0,0.3-0.1,0.3-0.3l0,0l0,0L146.6,153.6L146.6,153.6z M144.6,162.5h-1.9c-1.1,0-2.1-0.9-2.1-2c0-1.2,1.1-2.1,2.1-2.1c1.1,0,2.1,0.9,2.1,2.1v1.8C144.9,162.4,144.7,162.5,144.6,162.5L144.6,162.5z" /><path class="st0" d="M89.8,158.6v5.4c0,0.1,0.1,0.2,0.2,0.2h1.2c0.1,0,0.2-0.1,0.2-0.2v-7.1l0,0v0l0,0c0-0.1-0.1-0.3-0.3-0.3h0h-3l0,0c-1,0-1.8,0.4-2.4,1.1c-0.6-0.7-1.5-1.1-2.4-1.1c-1.8,0-3.3,1.5-3.3,3.3h0c0,0,0,0,0,0l0,0v4.1c0,0.1,0.1,0.2,0.2,0.2h1.2c0.1,0,0.2-0.1,0.2-0.2v-4.1l0,0c0-0.9,0.7-1.6,1.6-1.6s1.6,0.7,1.6,1.6l0,0v4.1c0,0.1,0.1,0.2,0.2,0.2h1.2c0.1,0,0.2-0.1,0.2-0.2v-4.1l0,0c0-0.9,0.7-1.6,1.6-1.6h1.3h0C89.6,158.3,89.8,158.4,89.8,158.6L89.8,158.6z" /><path class="st0" d="M136.8,160.6c-0.1-2.1-1.5-4-3.9-4c-2,0-3.9,1.5-3.9,3.6c0,2.1,1.7,4,3.9,4h3.3c0.1,0,0.3-0.1,0.3-0.3l0,0l0,0v-1.1l0,0c0-0.1-0.1-0.3-0.3-0.3l0,0h-3.4c-1,0-1.7-0.7-1.9-1.4l0-0.1c0-0.1,0.1-0.2,0.1-0.2h5.2h0.3c0.1,0,0.3-0.1,0.3-0.3l0,0L136.8,160.6L136.8,160.6z M134.7,159.4h-3.5c-0.1,0-0.1-0.1-0.1-0.2c0,0,0,0,0-0.1l0,0c0.4-0.6,1.1-1,1.8-1s1.5,0.4,1.9,1h0c0,0,0,0,0,0.1C134.8,159.4,134.7,159.4,134.7,159.4L134.7,159.4z" /><path class="st0" d="M124.3,159.6c-0.1,0-0.1-0.1-0.1-0.1c0,0,0-0.1,0.1-0.1l1.8-1.3c0,0,0,0,0,0c0.1-0.1,0.1-0.3,0.1-0.4c0,0,0,0,0,0l-0.7-0.9c0,0,0,0,0,0c-0.1-0.1-0.2-0.1-0.4-0.1l0,0l0,0l0,0l0,0l-1.1,0.8v0l-1.7,1.3c0,0-0.1,0-0.1,0c-0.1,0-0.1-0.1-0.1-0.1v0v-4.9c0,0,0,0,0,0c0-0.1-0.1-0.3-0.3-0.3h-1.2c-0.1,0-0.3,0.1-0.3,0.3c0,0,0,0,0,0v10.3l0,0c0,0.1,0.1,0.3,0.3,0.3l0,0h1.2c0.1,0,0.3-0.1,0.3-0.3c0,0,0,0,0,0v-2.5l0,0c0-0.1,0.1-0.3,0.3-0.3h0h0h1.1c1.3,0,2,1.3,2,2.7l0,0v0c0,0.1,0.1,0.3,0.3,0.3l0,0h1.2c0.1,0,0.3-0.1,0.3-0.3v0l0,0c0,0,0,0,0,0c0,0,0,0,0,0C127.1,161.4,126,160,124.3,159.6L124.3,159.6z" /><path class="st0" d="M117.8,156.9c0-0.1-0.1-0.2-0.3-0.2l0,0l0,0h-1.2c-1.2,0-2.3,1-2.3,2.2v5.1c0,0.1,0.1,0.3,0.3,0.3h1.2c0.1,0,0.3-0.1,0.3-0.3l0,0v0l0,0l0,0V159c0-0.2,0-0.8,0.7-0.8h1.1l0,0c0.1,0,0.3-0.1,0.3-0.3l0,0L117.8,156.9L117.8,156.9L117.8,156.9z" /></g><g><path class="st0" d="M80.1,175.5c0-0.5,0-0.9,0-1.3h0.8l0,0.8h0c0.3-0.5,0.7-0.9,1.5-0.9c0.7,0,1.2,0.4,1.4,1h0c0.2-0.3,0.3-0.5,0.5-0.6c0.3-0.2,0.6-0.3,1.1-0.3c0.6,0,1.6,0.4,1.6,2.1v2.9h-0.9v-2.8c0-0.9-0.3-1.5-1.1-1.5c-0.5,0-0.9,0.4-1.1,0.8c0,0.1-0.1,0.3-0.1,0.4v3h-0.9v-2.9c0-0.8-0.3-1.3-1-1.3c-0.6,0-1,0.4-1.1,0.9c-0.1,0.1-0.1,0.3-0.1,0.4v3h-0.9V175.5L80.1,175.5z" /><path class="st0" d="M93.9,176.6c0,1.8-1.3,2.6-2.4,2.6c-1.3,0-2.3-1-2.3-2.5c0-1.6,1.1-2.6,2.4-2.6S93.9,175.1,93.9,176.6L93.9,176.6z M90.1,176.6c0,1.1,0.6,1.9,1.5,1.9s1.5-0.8,1.5-1.9c0-0.8-0.4-1.9-1.5-1.9S90.1,175.7,90.1,176.6L90.1,176.6z" /><path class="st0" d="M96.6,176.8c0,1.2,0.8,1.7,1.7,1.7c0.6,0,1-0.1,1.4-0.3l0.2,0.6c-0.3,0.1-0.8,0.3-1.6,0.3c-1.5,0-2.4-1-2.4-2.5c0-1.5,0.9-2.6,2.3-2.6c1.6,0,2,1.4,2,2.3c0,0.2,0,0.3,0,0.4L96.6,176.8L96.6,176.8z M99.2,176.1c0-0.6-0.2-1.4-1.2-1.4c-0.9,0-1.3,0.8-1.4,1.4H99.2L99.2,176.1z" /><path class="st0" d="M103.2,172.7v1.4h1.3v0.7h-1.3v2.6c0,0.6,0.2,1,0.7,1c0.2,0,0.4,0,0.5-0.1l0,0.7c-0.2,0.1-0.4,0.1-0.8,0.1c-0.4,0-0.7-0.1-1-0.4c-0.3-0.3-0.3-0.7-0.3-1.3v-2.7h-0.8v-0.7h0.8V173L103.2,172.7L103.2,172.7z" /><path class="st0" d="M108.5,180.5c0.4,0,0.8-0.1,1-0.4c0.2-0.3,0.3-0.7,0.3-1.8v-4.1h0.9v4.4c0,1-0.2,1.6-0.6,2c-0.4,0.4-1,0.6-1.5,0.6L108.5,180.5L108.5,180.5z M110.8,172.8c0,0.3-0.2,0.5-0.6,0.5c-0.3,0-0.5-0.3-0.5-0.5c0-0.3,0.2-0.6,0.6-0.6C110.6,172.2,110.8,172.4,110.8,172.8z" /><path class="st0" d="M113.6,176.8c0,1.2,0.8,1.7,1.7,1.7c0.6,0,1-0.1,1.4-0.3l0.2,0.6c-0.3,0.1-0.8,0.3-1.6,0.3c-1.5,0-2.4-1-2.4-2.5c0-1.5,0.9-2.6,2.3-2.6c1.6,0,2,1.4,2,2.3c0,0.2,0,0.3,0,0.4L113.6,176.8L113.6,176.8z M116.3,176.1c0-0.6-0.2-1.4-1.2-1.4c-0.9,0-1.3,0.8-1.4,1.4H116.3L116.3,176.1z" /><path class="st0" d="M122.4,179c0-0.3,0-0.8,0-1.3v-5.9h0.9v3.1h0c0.3-0.5,0.9-0.9,1.7-0.9c1.2,0,2.1,1,2.1,2.5c0,1.8-1.1,2.6-2.2,2.6c-0.7,0-1.3-0.3-1.6-0.9h0l0,0.8L122.4,179L122.4,179z M123.3,177.1c0,0.1,0,0.2,0,0.3c0.2,0.6,0.7,1,1.3,1c0.9,0,1.5-0.8,1.5-1.9c0-1-0.5-1.8-1.5-1.8c-0.6,0-1.2,0.4-1.4,1.1c0,0.1-0.1,0.2-0.1,0.4V177.1L123.3,177.1z" /><path class="st0" d="M129.7,176.8c0,1.2,0.8,1.7,1.7,1.7c0.6,0,1-0.1,1.4-0.3l0.2,0.6c-0.3,0.1-0.8,0.3-1.6,0.3c-1.5,0-2.4-1-2.4-2.5c0-1.5,0.9-2.6,2.3-2.6c1.6,0,2,1.4,2,2.3c0,0.2,0,0.3,0,0.4L129.7,176.8L129.7,176.8z M132.3,176.1c0-0.6-0.2-1.4-1.2-1.4c-0.9,0-1.3,0.8-1.4,1.4H132.3L132.3,176.1z" /><path class="st0" d="M135.3,171.9h0.9v7.2h-0.9V171.9L135.3,171.9z" /><path class="st0" d="M139.1,176.8c0,1.2,0.8,1.7,1.7,1.7c0.6,0,1-0.1,1.4-0.3l0.2,0.6c-0.3,0.1-0.8,0.3-1.6,0.3c-1.5,0-2.4-1-2.4-2.5c0-1.5,0.9-2.6,2.3-2.6c1.6,0,2,1.4,2,2.3c0,0.2,0,0.3,0,0.4L139.1,176.8L139.1,176.8z M141.8,176.1c0-0.6-0.2-1.4-1.2-1.4c-0.9,0-1.3,0.8-1.4,1.4H141.8L141.8,176.1z" /><path class="st0" d="M145.1,174.1l1,2.8c0.2,0.4,0.3,0.8,0.4,1.3h0c0.1-0.4,0.3-0.8,0.4-1.3l1-2.8h0.9l-1.9,4.9H146l-1.9-4.9H145.1L145.1,174.1z" /><path class="st0" d="M151,176.8c0,1.2,0.8,1.7,1.7,1.7c0.6,0,1-0.1,1.4-0.3l0.2,0.6c-0.3,0.1-0.8,0.3-1.6,0.3c-1.5,0-2.4-1-2.4-2.5c0-1.5,0.9-2.6,2.3-2.6c1.6,0,2,1.4,2,2.3c0,0.2,0,0.3,0,0.4L151,176.8L151,176.8z M153.6,176.1c0-0.6-0.2-1.4-1.2-1.4c-0.9,0-1.3,0.8-1.4,1.4H153.6L153.6,176.1z" /><path class="st0" d="M156.6,175.5c0-0.5,0-0.9,0-1.3h0.8l0.1,0.8h0c0.2-0.5,0.8-0.9,1.6-0.9c0.7,0,1.7,0.4,1.7,2.1v2.9h-0.9v-2.8c0-0.8-0.3-1.4-1.1-1.4c-0.6,0-1,0.4-1.2,0.9c0,0.1-0.1,0.3-0.1,0.4v2.9h-0.9L156.6,175.5L156.6,175.5z" /></g></svg>